<svg width="48" height="70" viewBox="0 0 48 70" fill="none" xmlns="http://www.w3.org/2000/svg">
<path d="M47.348 34.2367L45.1071 33.381C35.1731 29.6109 27.3877 17.5838 24.962 2.20304L24.7309 0.676524C24.5923 -0.225508 23.2755 -0.225508 23.1369 0.676524L22.9059 2.20304C20.4801 17.607 12.7178 29.6341 2.76072 33.381L0.5198 34.2367C-0.173267 34.4912 -0.173267 35.4857 0.5198 35.7633L2.76072 36.619C12.6947 40.3891 20.4801 52.4162 22.9059 67.797L23.1369 69.3235C23.2755 70.2255 24.5923 70.2255 24.7309 69.3235L24.962 67.797C27.3877 52.393 35.15 40.3659 45.1071 36.619L47.348 35.7633C48.0411 35.5088 48.0411 34.5143 47.348 34.2367Z" fill="#EDA2DC"/>
</svg>
