<svg width="49" height="70" viewBox="0 0 49 70" fill="none" xmlns="http://www.w3.org/2000/svg">
<path d="M48.346 34.2367L46.0988 33.381C36.1375 29.6109 28.3305 17.5838 25.8981 2.20304L25.6664 0.676524C25.5274 -0.225508 24.207 -0.225508 24.068 0.676524L23.8363 2.20304C21.4039 17.607 13.6201 29.6341 3.63553 33.381L1.38842 34.2367C0.693442 34.4912 0.693442 35.4857 1.38842 35.7633L3.63553 36.619C13.5969 40.3891 21.4039 52.4162 23.8363 67.797L24.068 69.3235C24.207 70.2255 25.5274 70.2255 25.6664 69.3235L25.8981 67.797C28.3305 52.393 36.1143 40.3659 46.0988 36.619L48.346 35.7633C49.0409 35.5088 49.0409 34.5143 48.346 34.2367Z" fill="#008B9A"/>
</svg>
