<svg width="32" height="33" viewBox="0 0 32 33" fill="none" xmlns="http://www.w3.org/2000/svg">
<path d="M16.0066 3.16602C19.5799 3.16602 22.5176 5.97389 22.6667 9.53178H22.6318C22.636 9.6352 22.6161 9.73818 22.5738 9.83268H22.7819C24.4046 9.83268 26.1038 10.9574 26.7851 13.6724L26.8592 13.9928L27.8843 22.2523C28.6221 27.5203 25.7399 29.7357 21.8083 29.8296L21.5446 29.8327H10.4914C6.4957 29.8327 3.41673 28.3766 4.09371 22.6108L4.13987 22.2523L5.17685 13.9928C5.68819 11.0689 7.40481 9.91568 9.05883 9.83703L9.24228 9.83268H9.34652C9.32894 9.73315 9.32894 9.63132 9.34652 9.53178C9.49563 5.97389 12.4333 3.16602 16.0066 3.16602ZM12.1293 14.2717C11.4785 14.2717 10.9509 14.8147 10.9509 15.4846C10.9509 16.1544 11.4785 16.6974 12.1293 16.6974C12.7801 16.6974 13.3077 16.1544 13.3077 15.4846L13.2985 15.3325C13.2258 14.7344 12.7301 14.2717 12.1293 14.2717ZM19.8478 14.2717C19.197 14.2717 18.6694 14.8147 18.6694 15.4846C18.6694 16.1544 19.197 16.6974 19.8478 16.6974C20.4986 16.6974 21.0261 16.1544 21.0261 15.4846C21.0261 14.8147 20.4986 14.2717 19.8478 14.2717ZM15.9543 4.90253C13.3889 4.90253 11.3091 6.97512 11.3091 9.53178C11.3267 9.63132 11.3267 9.73315 11.3091 9.83268H20.6576C20.6205 9.73661 20.6008 9.63472 20.5995 9.53178C20.5995 6.97512 18.5198 4.90253 15.9543 4.90253Z" fill="#008B9A"/>
</svg>
