<svg width="32" height="33" viewBox="0 0 32 33" fill="none" xmlns="http://www.w3.org/2000/svg">
<path d="M11.0413 3.83419C11.8813 3.85974 12.6947 4.0064 13.4827 4.2744H13.5613C13.6147 4.29974 13.6547 4.32774 13.6813 4.35307C13.976 4.44774 14.2547 4.5544 14.5213 4.70107L15.028 4.92774C15.228 5.0344 15.468 5.23307 15.6013 5.3144C15.7347 5.39307 15.8813 5.4744 16.0013 5.5664C17.4827 4.4344 19.2813 3.82107 21.1347 3.83419C21.976 3.83419 22.816 3.95307 23.6147 4.22107C28.536 5.82107 30.3093 11.2211 28.828 15.9411C27.988 18.3531 26.6147 20.5544 24.816 22.3531C22.2413 24.8464 19.416 27.0597 16.3747 28.9664L16.0413 29.1677L15.6947 28.9531C12.6427 27.0597 9.80132 24.8464 7.20266 22.3397C5.41599 20.5411 4.04132 18.3531 3.18799 15.9411C1.68132 11.2211 3.45466 5.82107 8.42932 4.19307C8.81599 4.05974 9.21466 3.9664 9.61466 3.9144H9.77466C10.1493 3.85974 10.5213 3.83419 10.8947 3.83419H11.0413ZM22.9213 8.04774C22.3747 7.85974 21.7747 8.1544 21.5747 8.7144C21.388 9.2744 21.6813 9.88774 22.2413 10.0864C23.096 10.4064 23.668 11.2477 23.668 12.1797V12.2211C23.6427 12.5264 23.7347 12.8211 23.9213 13.0477C24.108 13.2744 24.388 13.4064 24.6813 13.4344C25.228 13.4197 25.6947 12.9811 25.7347 12.4197V12.2611C25.7747 10.3931 24.6427 8.70107 22.9213 8.04774Z" fill="#E86221"/>
</svg>
