<svg width="48" height="70" viewBox="0 0 48 70" fill="none" xmlns="http://www.w3.org/2000/svg">
<path d="M47.4788 34.2367L45.2317 33.381C35.2703 29.6109 27.4633 17.5838 25.0309 2.20304L24.7992 0.676524C24.6602 -0.225508 23.3398 -0.225508 23.2008 0.676524L22.9691 2.20304C20.5367 17.607 12.7529 29.6341 2.76834 33.381L0.521235 34.2367C-0.173745 34.4912 -0.173745 35.4857 0.521235 35.7633L2.76834 36.619C12.7297 40.3891 20.5367 52.4162 22.9691 67.797L23.2008 69.3235C23.3398 70.2255 24.6602 70.2255 24.7992 69.3235L25.0309 67.797C27.4633 52.393 35.2471 40.3659 45.2317 36.619L47.4788 35.7633C48.1737 35.5088 48.1737 34.5143 47.4788 34.2367Z" fill="#008B9A"/>
</svg>
