<svg width="200" height="59" viewBox="0 0 200 59" fill="none" xmlns="http://www.w3.org/2000/svg">
<path d="M48.897 0C39.8958 0 32.598 8.27725 32.598 18.4814C32.598 8.27725 25.3002 0 16.299 0C7.29782 0 0 8.27725 0 18.4814C0 34.28 12.7645 49.557 32.598 59C52.4368 49.557 65.196 34.28 65.196 18.4814C65.2013 8.27725 57.9035 0 48.897 0Z" fill="#E86221"/>
<path d="M32.5984 42.3332C29.5164 42.3332 27.0039 39.8261 27.0039 36.7388C27.0039 36.2916 27.3659 35.9297 27.813 35.9297C28.2601 35.9297 28.6274 36.2916 28.6274 36.7388C28.6274 38.9265 30.4106 40.7097 32.5984 40.7097C34.7861 40.7097 36.5693 38.9265 36.5693 36.7388C36.5693 36.2916 36.9313 35.9297 37.3837 35.9297C37.8362 35.9297 38.1928 36.2916 38.1928 36.7388C38.1928 39.8208 35.6857 42.3332 32.5984 42.3332Z" fill="#010101"/>
<path d="M45.2539 15.0332V34.0576C50.5024 34.0576 54.7608 29.7992 54.7608 24.5454C54.7608 19.2916 50.5077 15.0385 45.2539 15.0332Z" fill="#010101"/>
<path d="M19.5122 34.0244C24.7656 34.0244 29.0244 29.7656 29.0244 24.5122C29.0244 19.2587 24.7656 15 19.5122 15C14.2587 15 10 19.2587 10 24.5122C10 29.7656 14.2587 34.0244 19.5122 34.0244Z" fill="#E8E6DF"/>
<mask id="mask0_220_1008" style="mask-type:alpha" maskUnits="userSpaceOnUse" x="10" y="15" width="20" height="20">
<path d="M19.5122 34.0244C24.7656 34.0244 29.0244 29.7656 29.0244 24.5122C29.0244 19.2587 24.7656 15 19.5122 15C14.2587 15 10 19.2587 10 24.5122C10 29.7656 14.2587 34.0244 19.5122 34.0244Z" fill="#E8E6DF"/>
</mask>
<g mask="url(#mask0_220_1008)">
<rect x="19" y="14" width="11" height="21" fill="#010101"/>
</g>
<path d="M45.5122 34.0244C50.7656 34.0244 55.0244 29.7656 55.0244 24.5122C55.0244 19.2587 50.7656 15 45.5122 15C40.2587 15 36 19.2587 36 24.5122C36 29.7656 40.2587 34.0244 45.5122 34.0244Z" fill="#E8E6DF"/>
<mask id="mask1_220_1008" style="mask-type:alpha" maskUnits="userSpaceOnUse" x="36" y="15" width="20" height="20">
<path d="M45.5122 34.0244C50.7656 34.0244 55.0244 29.7656 55.0244 24.5122C55.0244 19.2587 50.7656 15 45.5122 15C40.2587 15 36 19.2587 36 24.5122C36 29.7656 40.2587 34.0244 45.5122 34.0244Z" fill="#E8E6DF"/>
</mask>
<g mask="url(#mask1_220_1008)">
<rect x="45" y="14" width="11" height="21" fill="#010101"/>
</g>
<path d="M193.421 47.875C193.338 46.725 193.254 45.5667 193.171 44.4C193.104 43.2333 193.021 42.0583 192.921 40.875C192.188 40.825 191.479 40.775 190.796 40.725C190.113 40.675 189.421 40.65 188.721 40.65H188.396C188.313 41.85 188.238 43.0333 188.171 44.2C188.104 45.3667 188.046 46.525 187.996 47.675L181.746 47.575C182.779 41.625 183.713 35.6917 184.546 29.775C185.379 23.8583 186.088 17.8917 186.671 11.875L194.196 12C194.829 17.95 195.588 23.8667 196.471 29.75C197.371 35.6167 198.421 41.525 199.621 47.475L193.421 47.875ZM190.496 18.175C190.163 21.2417 189.846 24.3 189.546 27.35C189.246 30.4 188.971 33.475 188.721 36.575C189.071 36.6083 189.429 36.625 189.796 36.625C190.163 36.625 190.538 36.625 190.921 36.625H192.546C192.263 33.525 191.946 30.45 191.596 27.4C191.246 24.35 190.879 21.275 190.496 18.175Z" fill="#171717"/>
<path d="M170.972 11.5746C170.722 14.7413 170.522 17.8829 170.372 20.9996C170.239 24.0996 170.147 27.2079 170.097 30.3246C171.28 27.2079 172.389 24.0913 173.422 20.9746C174.455 17.8413 175.464 14.6746 176.447 11.4746L181.922 11.8746C180.505 15.1579 179.155 18.4413 177.872 21.7246C176.589 25.0079 175.38 28.3329 174.247 31.6996C175.23 34.3496 176.297 36.9413 177.447 39.4746C178.597 41.9913 179.822 44.4829 181.122 46.9496L175.572 47.5746C174.755 45.1246 173.889 42.7246 172.972 40.3746C172.055 38.0079 171.08 35.6663 170.047 33.3496V36.4496C170.047 40.0996 170.097 43.7246 170.197 47.3246L165.047 47.2746C165.147 43.8746 165.23 40.4829 165.297 37.0996C165.364 33.7163 165.397 30.3163 165.397 26.8996C165.397 24.3496 165.372 21.8079 165.322 19.2746C165.289 16.7246 165.247 14.1579 165.197 11.5746H170.972Z" fill="#171717"/>
<path d="M162.945 22.85C162.945 24.2833 162.753 25.6917 162.37 27.075C162.003 28.4417 161.428 29.7083 160.645 30.875C159.878 32.0417 158.903 33.075 157.72 33.975C156.536 34.8583 155.136 35.5333 153.52 36C153.553 38.0167 153.595 40.0167 153.645 42C153.711 43.9667 153.786 45.925 153.87 47.875H147.77C148.036 44.0917 148.228 40.3083 148.345 36.525C148.478 32.7417 148.545 28.9333 148.545 25.1C148.545 22.8833 148.528 20.675 148.495 18.475C148.461 16.2583 148.395 14.025 148.295 11.775C149.178 11.5083 150.07 11.3333 150.97 11.25C151.886 11.1667 152.661 11.125 153.295 11.125C153.745 11.125 154.295 11.175 154.945 11.275C155.611 11.375 156.295 11.575 156.995 11.875C157.711 12.1583 158.42 12.5667 159.12 13.1C159.836 13.6167 160.478 14.3167 161.045 15.2C161.611 16.0667 162.07 17.125 162.42 18.375C162.77 19.625 162.945 21.1167 162.945 22.85ZM153.52 31.75C154.07 31.55 154.545 31.2833 154.945 30.95C155.361 30.6167 155.72 30.25 156.02 29.85C156.336 29.4333 156.595 28.9917 156.795 28.525C157.011 28.0583 157.186 27.6 157.32 27.15C157.636 26.1 157.82 24.9583 157.87 23.725C157.87 23.7083 157.861 23.5167 157.845 23.15C157.845 22.7833 157.803 22.325 157.72 21.775C157.653 21.2083 157.536 20.5917 157.37 19.925C157.203 19.2417 156.97 18.5917 156.67 17.975C156.386 17.3583 156.011 16.8083 155.545 16.325C155.095 15.825 154.536 15.475 153.87 15.275C153.736 17.8583 153.645 20.45 153.595 23.05C153.545 25.6333 153.52 28.2417 153.52 30.875V31.75Z" fill="#171717"/>
<path d="M145.52 47.325C144.853 47.2917 144.186 47.2667 143.52 47.25C142.853 47.2333 142.186 47.225 141.52 47.225C140.42 47.225 139.32 47.25 138.22 47.3C137.12 47.3333 136.02 47.3917 134.92 47.475L134.97 42.1C135.353 42.15 135.736 42.1917 136.12 42.225C136.503 42.2417 136.886 42.2667 137.27 42.3C137.37 39.7167 137.461 37.15 137.545 34.6C137.645 32.0333 137.695 29.4667 137.695 26.9C137.695 25.1833 137.67 23.4917 137.62 21.825C137.57 20.1417 137.52 18.45 137.47 16.75C137.036 16.75 136.595 16.7583 136.145 16.775C135.695 16.7917 135.236 16.8167 134.77 16.85L134.82 11.625C136.103 11.7083 137.386 11.775 138.67 11.825C139.953 11.8583 141.245 11.875 142.545 11.875C143.011 11.875 143.478 11.875 143.945 11.875C144.411 11.875 144.886 11.8583 145.37 11.825L145.22 16.8C144.836 16.8 144.453 16.7917 144.07 16.775C143.703 16.7583 143.328 16.75 142.945 16.75C142.711 19.75 142.545 22.7333 142.445 25.7C142.345 28.65 142.295 31.625 142.295 34.625C142.295 37.2417 142.345 39.85 142.445 42.45C142.978 42.45 143.52 42.4417 144.07 42.425C144.636 42.4083 145.203 42.3833 145.77 42.35L145.52 47.325Z" fill="#171717"/>
<path d="M133.596 47.7258C132.663 47.6925 131.754 47.6674 130.871 47.6508C130.004 47.6341 129.138 47.6258 128.271 47.6258C126.971 47.6258 125.688 47.6425 124.421 47.6758C123.154 47.7258 121.846 47.7925 120.496 47.8758C120.646 44.7758 120.763 41.7091 120.846 38.6758C120.946 35.6258 120.996 32.5508 120.996 29.4508C120.996 26.4841 120.954 23.5424 120.871 20.6258C120.804 17.6924 120.679 14.7424 120.496 11.7758C120.663 11.7924 120.854 11.8008 121.071 11.8008C121.254 11.8174 121.479 11.8258 121.746 11.8258C122.013 11.8258 122.313 11.8258 122.646 11.8258C123.179 11.8258 123.754 11.8174 124.371 11.8008C125.004 11.7674 125.638 11.7258 126.271 11.6758C126.054 14.0758 125.896 16.6008 125.796 19.2508C125.713 21.9008 125.654 24.5841 125.621 27.3008C125.604 30.0008 125.588 32.7008 125.571 35.4008C125.571 38.0841 125.546 40.6758 125.496 43.1758C126.863 43.1425 128.188 43.0758 129.471 42.9758C130.771 42.8758 132.146 42.7175 133.596 42.5008V47.7258Z" fill="#171717"/>
<path d="M112.671 47.875C112.588 46.725 112.504 45.5667 112.421 44.4C112.354 43.2333 112.271 42.0583 112.171 40.875C111.438 40.825 110.729 40.775 110.046 40.725C109.363 40.675 108.671 40.65 107.971 40.65H107.646C107.563 41.85 107.488 43.0333 107.421 44.2C107.354 45.3667 107.296 46.525 107.246 47.675L100.996 47.575C102.029 41.625 102.963 35.6917 103.796 29.775C104.629 23.8583 105.338 17.8917 105.921 11.875L113.446 12C114.079 17.95 114.838 23.8667 115.721 29.75C116.621 35.6167 117.671 41.525 118.871 47.475L112.671 47.875ZM109.746 18.175C109.413 21.2417 109.096 24.3 108.796 27.35C108.496 30.4 108.221 33.475 107.971 36.575C108.321 36.6083 108.679 36.625 109.046 36.625C109.413 36.625 109.788 36.625 110.171 36.625H111.796C111.513 33.525 111.196 30.45 110.846 27.4C110.496 24.35 110.129 21.275 109.746 18.175Z" fill="#171717"/>
<path d="M99.3203 11.6246C99.1036 14.9746 98.937 18.2996 98.8203 21.5996C98.7036 24.8829 98.6453 28.1829 98.6453 31.4996C98.6453 34.0829 98.6786 36.6329 98.7453 39.1496C98.8286 41.6663 98.962 44.1996 99.1453 46.7496L94.0953 46.5996C93.4286 44.4329 92.7703 42.2829 92.1203 40.1496C91.487 37.9996 90.8536 35.8663 90.2203 33.7496C89.587 31.6329 88.937 29.5246 88.2703 27.4246C87.6203 25.3246 86.9453 23.2329 86.2453 21.1496C86.2953 25.4996 86.3703 29.8413 86.4703 34.1746C86.587 38.4913 86.787 42.7996 87.0703 47.0996L81.2953 47.0496C81.4953 41.7329 81.5953 36.3913 81.5953 31.0246C81.5953 27.7246 81.562 24.4579 81.4953 21.2246C81.4286 17.9913 81.3286 14.7413 81.1953 11.4746L88.1953 11.6246C89.0453 15.2913 89.9536 19.0163 90.9203 22.7996C91.887 26.5829 92.912 30.3163 93.9953 33.9996C93.8786 30.2329 93.7036 26.4663 93.4703 22.6996C93.2536 18.9163 93.012 15.2079 92.7453 11.5746L99.3203 11.6246Z" fill="#171717"/>
</svg>
