<svg width="21" height="25" viewBox="0 0 21 25" fill="none" xmlns="http://www.w3.org/2000/svg">
<path d="M20.3436 12.9352V19.4889C20.3436 20.2618 20.125 21.0191 19.7126 21.6731L18.8213 23.0875C18.071 24.278 16.7624 25 15.355 25H10.6865C9.21377 25 7.82815 24.3037 6.9494 23.1219L0.391856 14.3052C-0.139837 13.7069 -0.129386 12.802 0.416677 12.2163C0.9819 11.6093 1.92466 11.554 2.55695 12.0909L5.86032 14.8948C6.08023 15.0812 6.4177 14.9253 6.4177 14.637V1.74096C6.4177 0.779467 7.19717 0 8.15866 0C8.6394 0 9.07443 0.194649 9.3897 0.50992C9.70453 0.824755 9.89962 1.26021 9.89962 1.74096V10.7911C9.89962 9.82956 10.6791 9.0501 11.6406 9.0501C12.1213 9.0501 12.5563 9.24474 12.8716 9.56001C13.1864 9.87485 13.3815 10.3103 13.3815 10.7911V11.891C13.3815 10.9295 14.161 10.1501 15.1225 10.1501C15.6032 10.1501 16.0382 10.3447 16.3535 10.66C16.6684 10.9752 16.8634 11.4103 16.8634 11.891V12.9357C16.8634 11.9742 17.6429 11.1947 18.6044 11.1947C19.0851 11.1947 19.5202 11.3894 19.8354 11.7046C20.1503 12.0199 20.3454 12.4549 20.3454 12.9357L20.3436 12.9352Z" fill="#E9BD10"/>
</svg>
