<svg width="209" height="34" viewBox="0 0 209 34" fill="none" xmlns="http://www.w3.org/2000/svg">
<path d="M0 28.1784C0 25.8954 1.24405 24.1831 3.05357 22.8133C29.5179 4.20687 124.97 -3.32701 155.054 1.35313C160.03 2.15218 163.649 4.20688 163.649 7.17477C163.649 9.11532 162.179 10.5993 160.256 10.5993C159.464 10.5993 158.786 10.4851 157.994 10.371C155.958 9.91437 151.208 9.68607 148.946 9.68607C107.554 9.68607 66.1607 15.0511 26.3512 26.2378C23.4107 27.151 6.22024 34 5.99405 34C2.4881 34 0 31.9453 0 28.1784ZM203.006 18.2473C197.012 15.9643 190.565 13.5672 184.119 12.654C181.97 12.3115 179.935 12.1974 177.899 11.6266C176.202 11.2842 174.732 9.57192 174.732 7.74553C174.732 2.72293 180.387 3.29368 183.893 3.29368C189.435 3.29368 209 5.00593 209 12.9964C209 16.5351 206.286 18.2473 203.006 18.2473Z" fill="#E86221"/>
</svg>
